<svg width="1001" height="180" viewBox="0 0 1001 180" fill="none" xmlns="http://www.w3.org/2000/svg">
    <path d="M179.859 60.1388V85.7458H137.157C131.075 85.7458 125.294 84.4797 120.067 82.1849C110.216 77.8959 102.312 69.9828 98.0197 60.1388C95.723 54.9161 94.4559 49.1395 94.4559 43.078V0.410156H120.067V43.078C120.067 52.4946 127.717 60.1388 137.157 60.1388H179.859Z" fill="#0043FF"/>
    <path d="M60.2757 0.410156H85.9029V43.078C85.9029 49.1553 84.6358 54.9319 82.3392 60.1546C78.0469 69.9986 70.1275 77.8959 60.2757 82.1849C55.0489 84.4797 49.2677 85.7458 43.2015 85.7458H0.5V60.1546H43.2015C52.6256 60.1546 60.2757 52.5105 60.2757 43.078V0.410156Z" fill="#0043FF"/>
    <path d="M0.5 119.883V94.2761H43.2015C49.2836 94.2761 55.0648 95.5422 60.2916 97.8371C70.1433 102.126 78.0469 110.039 82.3392 119.883C84.6358 125.106 85.9029 130.882 85.9029 136.944V179.612H60.2916V136.944C60.2916 127.527 52.6414 119.883 43.2015 119.883H0.5Z" fill="#0043FF"/>
    <path d="M120.083 179.612H94.4559V136.944C94.4559 130.867 95.723 125.09 98.0197 119.867C102.312 110.023 110.231 102.126 120.083 97.8371C125.31 95.5422 131.091 94.2761 137.157 94.2761H179.859V119.867H137.157C127.733 119.867 120.083 127.511 120.083 136.944V179.612Z" fill="#0043FF"/>
    <path d="M265.262 90.003C265.262 42.4607 298.207 9.33618 345.137 9.33618C381.313 9.33618 410.583 29.768 417.267 59.4582H389.707C384.544 43.9642 366.234 33.4239 344.931 33.4239C313.491 33.4239 291.744 56.4512 291.744 90.003C291.744 123.555 314.14 146.582 345.359 146.582C370.542 146.582 387.775 130.439 389.707 106.573H349.873V85.0652H417.267V167.457H395.742V140.568C384.766 159.718 366.028 170.686 342.999 170.686C298.001 170.686 265.278 136.691 265.278 90.0189L265.262 90.003Z" fill="black"/>
    <path d="M431.047 111.084C431.047 76.6615 454.52 51.7034 487.021 51.7034C522.12 51.7034 544.294 79.6685 539.559 117.541H455.803C457.957 137.118 469.361 148.956 487.021 148.956C500.152 148.956 510.051 142.721 513.076 132.386H539.131C534.173 156.046 514.153 170.686 487.021 170.686C453.87 170.686 431.047 146.377 431.047 111.1V111.084ZM513.504 99.2615C512.854 83.3402 502.733 73.4488 486.799 73.4488C470.866 73.4488 460.317 83.1345 456.88 99.2615H513.504Z" fill="black"/>
    <path d="M552.467 54.9319H577.223V68.7009C583.686 59.0151 598.115 51.7034 612.322 51.7034C637.3 51.7034 653.44 68.052 653.44 93.659V167.457H627.813V98.8342C627.813 84.2107 618.769 74.7465 604.989 74.7465C589.91 74.7465 578.079 86.7904 578.079 102.284V167.473H552.451V54.9319H552.467Z" fill="black"/>
    <path d="M665.287 111.084C665.287 76.6615 688.76 51.7034 721.262 51.7034C756.36 51.7034 778.535 79.6685 773.799 117.541H690.043C692.197 137.118 703.601 148.956 721.262 148.956C734.392 148.956 744.291 142.721 747.316 132.386H773.371C768.414 156.046 748.393 170.686 721.262 170.686C688.111 170.686 665.287 146.377 665.287 111.1V111.084ZM747.744 99.2615C747.095 83.3402 736.974 73.4488 721.04 73.4488C705.106 73.4488 694.557 83.1345 691.12 99.2615H747.744Z" fill="black"/>
    <path d="M786.708 54.9319H811.258V74.9364C815.993 62.4652 828.047 53.8557 841.827 53.8557C845.913 53.8557 848.067 54.0773 854.308 55.3592V80.7447C850.221 80.0958 846.562 79.6685 842.46 79.6685C823.295 79.6685 812.097 92.7885 812.097 115.816V167.441H786.692V54.9319H786.708Z" fill="black"/>
    <path d="M862.48 137.34C862.48 114.534 880.774 99.9104 913.719 96.033L932.662 93.8806V91.7282C932.662 79.8901 924.268 72.3726 911.137 72.3726C898.007 72.3726 889.818 79.4786 888.535 90.2247H863.985C865.917 66.3428 884.227 51.7192 911.787 51.7192C939.346 51.7192 957.212 67.6405 957.212 93.8806V134.538C957.212 143.354 957.64 153.261 958.717 167.457H933.961V149.811C925.345 163.801 913.941 170.686 898.435 170.686C876.91 170.686 862.48 157.344 862.48 137.34ZM903.82 150.032C920.181 150.032 932.662 135.836 932.662 116.686V111.527L912.42 114.756C896.28 117.13 887.442 124.22 887.442 135.187C887.442 143.797 894.111 150.032 903.804 150.032H903.82Z" fill="black"/>
    <path d="M974.873 12.5488H1000.5V167.441H974.873V12.5488Z" fill="black"/>
</svg>
