<svg width="206" height="70" viewBox="0 0 206 70" fill="none" xmlns="http://www.w3.org/2000/svg">
<path fill-rule="evenodd" clip-rule="evenodd" d="M15.5419 62.5198C15.5733 64.3413 17.2037 65.6019 18.9058 65.2074C20.621 64.8098 22.44 64.3501 23.9737 63.8793C26.4876 63.1076 29.6988 61.7954 31.9576 60.8252C32.9139 60.4145 33.5402 59.5135 33.5914 58.4821C34.0801 48.6301 34.1267 38.5294 33.5786 28.6667C33.5201 27.6137 32.8624 26.6909 31.8621 26.281C29.7442 25.4131 26.7966 24.2414 24.3475 23.4006C22.7773 22.8615 20.8796 22.3007 19.0877 21.8029C17.3455 21.3188 15.6353 22.5791 15.5917 24.432C15.4957 28.5137 15.3994 34.7533 15.3994 43.3582C15.3994 52.1279 15.4714 58.4412 15.5419 62.5198ZM19.8091 69.1041C15.5547 70.0902 11.6166 66.8808 11.5424 62.5889C11.4716 58.4862 11.3994 52.1497 11.3994 43.3582C11.3994 34.7235 11.496 28.4525 11.5928 24.3379C11.6967 19.9246 15.8615 16.7551 20.1584 17.9488C21.9808 18.4551 23.9661 19.0405 25.6464 19.6174C28.2097 20.4974 31.2449 21.7052 33.3789 22.5797C35.7822 23.5647 37.4269 25.825 37.5724 28.4447C38.1306 38.4887 38.0848 48.6344 37.5865 58.6803C37.4592 61.245 35.8883 63.4903 33.5362 64.5006C31.2621 65.4773 27.8823 66.8637 25.1475 67.7032C23.4852 68.2135 21.5637 68.6974 19.8091 69.1041ZM22.6524 7.13742C22.6209 5.31592 20.9905 4.05531 19.2884 4.44984C17.5732 4.84741 15.7542 5.30712 14.2205 5.77791C11.7067 6.5496 8.49537 7.86185 6.23658 8.832C5.28035 9.24271 4.654 10.1437 4.60284 11.1751C4.11178 21.0748 4.06553 31.0917 4.61562 40.9906C4.67414 42.0436 5.33184 42.9663 6.33214 43.3762C8.45 44.2442 11.3976 45.4158 13.8467 46.2566C15.4169 46.7957 17.3147 47.3565 19.1065 47.8544C20.8487 48.3384 22.5589 47.0781 22.6025 45.2253C22.6985 41.1435 22.7949 34.904 22.7949 26.299C22.7949 17.5294 22.7228 11.216 22.6524 7.13742ZM18.3852 0.55315C22.6395 -0.432962 26.5776 2.77639 26.6518 7.06831C26.7227 11.1711 26.7949 17.5075 26.7949 26.299C26.7949 34.9338 26.6982 41.2047 26.6014 45.3193C26.4976 49.7326 22.3327 52.9022 18.0358 51.7084C16.2134 51.2021 14.2281 50.6167 12.5478 50.0399C9.98454 49.1599 6.94927 47.952 4.81531 47.0775C2.41198 46.0926 0.767363 43.8322 0.621783 41.2125C0.06363 31.1686 0.109447 21.0228 0.607748 10.977C0.734966 8.41221 2.3059 6.1669 4.65802 5.15666C6.93208 4.17995 10.3119 2.79353 13.0467 1.95402C14.709 1.44374 16.6305 0.959866 18.3852 0.55315Z" fill="url(#paint0_linear_756_1020)"/>
<path d="M11.4008 45.3742C11.4028 46.8733 11.4068 48.2949 11.4125 49.6403C11.7981 49.779 12.1778 49.9128 12.5478 50.0399C13.4419 50.3468 14.4225 50.6562 15.4189 50.9548C15.4119 49.6381 15.4066 48.2424 15.4033 46.7663C14.8613 46.596 14.3379 46.4253 13.8467 46.2566C13.0675 45.9891 12.2381 45.6882 11.4008 45.3742Z" fill="#FFEC3F"/>
<path d="M22.7913 22.891C22.788 21.4149 22.7827 20.0192 22.7757 18.7025C23.772 19.0011 24.7523 19.3104 25.6464 19.6174C26.0164 19.7444 26.3965 19.8783 26.7821 20.017C26.7878 21.3624 26.7918 22.7841 26.7938 24.2831C25.9565 23.9691 25.1267 23.6681 24.3475 23.4006C23.8564 23.232 23.3333 23.0613 22.7913 22.891Z" fill="#FFEC3F"/>
<path d="M199.824 44.6286C198.164 44.6286 196.734 44.3186 195.534 43.6986C194.334 43.0786 193.404 42.1986 192.744 41.0586C192.104 39.9186 191.784 38.5686 191.784 37.0086C191.784 35.4886 192.094 34.1586 192.714 33.0186C193.354 31.8786 194.224 30.9886 195.324 30.3486C196.444 29.6886 197.714 29.3586 199.134 29.3586C200.174 29.3586 201.104 29.5286 201.924 29.8686C202.764 30.2086 203.474 30.6986 204.054 31.3386C204.654 31.9786 205.104 32.7586 205.404 33.6786C205.724 34.5786 205.884 35.5986 205.884 36.7386C205.884 37.0986 205.754 37.3786 205.494 37.5786C205.254 37.7586 204.904 37.8486 204.444 37.8486H194.814V35.6886H203.244L202.764 36.1386C202.764 35.2186 202.624 34.4486 202.344 33.8286C202.084 33.2086 201.694 32.7386 201.174 32.4186C200.674 32.0786 200.044 31.9086 199.284 31.9086C198.444 31.9086 197.724 32.1086 197.124 32.5086C196.544 32.8886 196.094 33.4386 195.774 34.1586C195.474 34.8586 195.324 35.6986 195.324 36.6786V36.8886C195.324 38.5286 195.704 39.7586 196.464 40.5786C197.244 41.3786 198.384 41.7786 199.884 41.7786C200.404 41.7786 200.984 41.7186 201.624 41.5986C202.284 41.4586 202.904 41.2286 203.484 40.9086C203.904 40.6686 204.274 40.5686 204.594 40.6086C204.914 40.6286 205.164 40.7386 205.344 40.9386C205.544 41.1386 205.664 41.3886 205.704 41.6886C205.744 41.9686 205.684 42.2586 205.524 42.5586C205.384 42.8586 205.134 43.1186 204.774 43.3386C204.074 43.7786 203.264 44.1086 202.344 44.3286C201.444 44.5286 200.604 44.6286 199.824 44.6286Z" fill="black"/>
<path d="M188.47 44.6286C186.81 44.6286 185.56 44.1586 184.72 43.2186C183.88 42.2586 183.46 40.8586 183.46 39.0186V24.8286C183.46 24.2086 183.62 23.7386 183.94 23.4186C184.26 23.0986 184.72 22.9386 185.32 22.9386C185.92 22.9386 186.38 23.0986 186.7 23.4186C187.04 23.7386 187.21 24.2086 187.21 24.8286V38.8386C187.21 39.7586 187.4 40.4386 187.78 40.8786C188.18 41.3186 188.74 41.5386 189.46 41.5386C189.62 41.5386 189.77 41.5386 189.91 41.5386C190.05 41.5186 190.19 41.4986 190.33 41.4786C190.61 41.4386 190.8 41.5186 190.9 41.7186C191 41.8986 191.05 42.2786 191.05 42.8586C191.05 43.3586 190.95 43.7486 190.75 44.0286C190.55 44.3086 190.22 44.4786 189.76 44.5386C189.56 44.5586 189.35 44.5786 189.13 44.5986C188.91 44.6186 188.69 44.6286 188.47 44.6286Z" fill="black"/>
<path d="M177.974 44.5386C177.374 44.5386 176.914 44.3586 176.594 43.9986C176.274 43.6386 176.114 43.1386 176.114 42.4986V31.4886C176.114 30.8286 176.274 30.3286 176.594 29.9886C176.914 29.6286 177.374 29.4486 177.974 29.4486C178.574 29.4486 179.034 29.6286 179.354 29.9886C179.694 30.3286 179.864 30.8286 179.864 31.4886V42.4986C179.864 43.1386 179.704 43.6386 179.384 43.9986C179.064 44.3586 178.594 44.5386 177.974 44.5386ZM177.974 26.6586C177.274 26.6586 176.724 26.4886 176.324 26.1486C175.944 25.7886 175.754 25.2986 175.754 24.6786C175.754 24.0386 175.944 23.5486 176.324 23.2086C176.724 22.8686 177.274 22.6986 177.974 22.6986C178.694 22.6986 179.244 22.8686 179.624 23.2086C180.004 23.5486 180.194 24.0386 180.194 24.6786C180.194 25.2986 180.004 25.7886 179.624 26.1486C179.244 26.4886 178.694 26.6586 177.974 26.6586Z" fill="black"/>
<path d="M166.885 44.6286C165.645 44.6286 164.555 44.3186 163.615 43.6986C162.695 43.0786 162.085 42.2486 161.785 41.2086L162.115 40.4586V42.6486C162.115 43.2686 161.955 43.7486 161.635 44.0886C161.315 44.4086 160.865 44.5686 160.285 44.5686C159.685 44.5686 159.225 44.4086 158.905 44.0886C158.585 43.7486 158.425 43.2686 158.425 42.6486V24.8286C158.425 24.2086 158.585 23.7386 158.905 23.4186C159.225 23.0986 159.685 22.9386 160.285 22.9386C160.885 22.9386 161.345 23.0986 161.665 23.4186C162.005 23.7386 162.175 24.2086 162.175 24.8286V32.6286H161.815C162.135 31.6486 162.755 30.8586 163.675 30.2586C164.595 29.6586 165.665 29.3586 166.885 29.3586C168.185 29.3586 169.315 29.6686 170.275 30.2886C171.235 30.9086 171.985 31.7886 172.525 32.9286C173.065 34.0486 173.335 35.3986 173.335 36.9786C173.335 38.5386 173.065 39.8986 172.525 41.0586C171.985 42.1986 171.225 43.0786 170.245 43.6986C169.285 44.3186 168.165 44.6286 166.885 44.6286ZM165.835 41.7786C166.575 41.7786 167.225 41.5986 167.785 41.2386C168.345 40.8786 168.775 40.3486 169.075 39.6486C169.395 38.9286 169.555 38.0386 169.555 36.9786C169.555 35.3786 169.215 34.1886 168.535 33.4086C167.855 32.6086 166.955 32.2086 165.835 32.2086C165.095 32.2086 164.445 32.3886 163.885 32.7486C163.325 33.0886 162.885 33.6186 162.565 34.3386C162.265 35.0386 162.115 35.9186 162.115 36.9786C162.115 38.5586 162.455 39.7586 163.135 40.5786C163.815 41.3786 164.715 41.7786 165.835 41.7786Z" fill="black"/>
<path d="M148.13 44.6286C146.61 44.6286 145.29 44.3186 144.17 43.6986C143.05 43.0786 142.18 42.1986 141.56 41.0586C140.94 39.8986 140.63 38.5386 140.63 36.9786C140.63 35.7986 140.8 34.7486 141.14 33.8286C141.5 32.8886 142.01 32.0886 142.67 31.4286C143.33 30.7486 144.12 30.2386 145.04 29.8986C145.96 29.5386 146.99 29.3586 148.13 29.3586C149.65 29.3586 150.97 29.6686 152.09 30.2886C153.21 30.9086 154.08 31.7886 154.7 32.9286C155.32 34.0686 155.63 35.4186 155.63 36.9786C155.63 38.1586 155.45 39.2186 155.09 40.1586C154.75 41.0986 154.25 41.9086 153.59 42.5886C152.93 43.2486 152.14 43.7586 151.22 44.1186C150.3 44.4586 149.27 44.6286 148.13 44.6286ZM148.13 41.7786C148.87 41.7786 149.52 41.5986 150.08 41.2386C150.64 40.8786 151.07 40.3486 151.37 39.6486C151.69 38.9286 151.85 38.0386 151.85 36.9786C151.85 35.3786 151.51 34.1886 150.83 33.4086C150.15 32.6086 149.25 32.2086 148.13 32.2086C147.39 32.2086 146.74 32.3886 146.18 32.7486C145.62 33.0886 145.18 33.6186 144.86 34.3386C144.56 35.0386 144.41 35.9186 144.41 36.9786C144.41 38.5586 144.75 39.7586 145.43 40.5786C146.11 41.3786 147.01 41.7786 148.13 41.7786Z" fill="black"/>
<path d="M117.855 44.5686C117.295 44.5686 116.865 44.4086 116.565 44.0886C116.265 43.7686 116.115 43.3286 116.115 42.7686V24.7386C116.115 24.1586 116.275 23.7186 116.595 23.4186C116.915 23.0986 117.355 22.9386 117.915 22.9386C118.415 22.9386 118.805 23.0386 119.085 23.2386C119.385 23.4186 119.655 23.7386 119.895 24.1986L127.305 37.9086H126.345L133.755 24.1986C133.995 23.7386 134.255 23.4186 134.535 23.2386C134.815 23.0386 135.205 22.9386 135.705 22.9386C136.265 22.9386 136.695 23.0986 136.995 23.4186C137.295 23.7186 137.445 24.1586 137.445 24.7386V42.7686C137.445 43.3286 137.295 43.7686 136.995 44.0886C136.715 44.4086 136.285 44.5686 135.705 44.5686C135.145 44.5686 134.715 44.4086 134.415 44.0886C134.115 43.7686 133.965 43.3286 133.965 42.7686V28.8786H134.625L128.325 40.3686C128.125 40.7086 127.915 40.9586 127.695 41.1186C127.475 41.2786 127.175 41.3586 126.795 41.3586C126.415 41.3586 126.105 41.2786 125.865 41.1186C125.625 40.9386 125.415 40.6886 125.235 40.3686L118.875 28.8486H119.595V42.7686C119.595 43.3286 119.445 43.7686 119.145 44.0886C118.865 44.4086 118.435 44.5686 117.855 44.5686Z" fill="black"/>
<path d="M93.9267 44.5686C93.3267 44.5686 92.8667 44.4086 92.5467 44.0886C92.2267 43.7486 92.0667 43.2686 92.0667 42.6486V24.8286C92.0667 24.2086 92.2267 23.7386 92.5467 23.4186C92.8667 23.0986 93.3267 22.9386 93.9267 22.9386C94.5267 22.9386 94.9867 23.0986 95.3067 23.4186C95.6467 23.7386 95.8167 24.2086 95.8167 24.8286V35.8986H95.8767L100.827 30.6786C101.227 30.2786 101.577 29.9686 101.877 29.7486C102.177 29.5286 102.587 29.4186 103.107 29.4186C103.627 29.4186 104.017 29.5586 104.277 29.8386C104.557 30.0986 104.697 30.4186 104.697 30.7986C104.697 31.1786 104.517 31.5586 104.157 31.9386L98.9367 37.4586V35.8986L104.667 42.0786C105.027 42.4586 105.187 42.8486 105.147 43.2486C105.127 43.6286 104.967 43.9486 104.667 44.2086C104.367 44.4486 103.987 44.5686 103.527 44.5686C102.967 44.5686 102.517 44.4586 102.177 44.2386C101.857 44.0186 101.497 43.6886 101.097 43.2486L95.8767 37.7886H95.8167V42.6486C95.8167 43.9286 95.1867 44.5686 93.9267 44.5686Z" fill="black"/>
<path d="M76.6779 44.5686C76.0779 44.5686 75.6179 44.4086 75.2979 44.0886C74.9779 43.7486 74.8179 43.2686 74.8179 42.6486V31.3086C74.8179 30.6886 74.9779 30.2186 75.2979 29.8986C75.6179 29.5786 76.0679 29.4186 76.6479 29.4186C77.2279 29.4186 77.6779 29.5786 77.9979 29.8986C78.3179 30.2186 78.4779 30.6886 78.4779 31.3086V33.3486L78.1479 32.5986C78.5879 31.5386 79.2679 30.7386 80.1879 30.1986C81.1279 29.6386 82.1879 29.3586 83.3679 29.3586C84.5479 29.3586 85.5179 29.5786 86.2779 30.0186C87.0379 30.4586 87.6079 31.1286 87.9879 32.0286C88.3679 32.9086 88.5579 34.0286 88.5579 35.3886V42.6486C88.5579 43.2686 88.3979 43.7486 88.0779 44.0886C87.7579 44.4086 87.2979 44.5686 86.6979 44.5686C86.0979 44.5686 85.6279 44.4086 85.2879 44.0886C84.9679 43.7486 84.8079 43.2686 84.8079 42.6486V35.5686C84.8079 34.4286 84.5879 33.5986 84.1479 33.0786C83.7279 32.5586 83.0679 32.2986 82.1679 32.2986C81.0679 32.2986 80.1879 32.6486 79.5279 33.3486C78.8879 34.0286 78.5679 34.9386 78.5679 36.0786V42.6486C78.5679 43.9286 77.9379 44.5686 76.6779 44.5686Z" fill="black"/>
<path d="M69.3314 44.5386C68.7314 44.5386 68.2714 44.3586 67.9514 43.9986C67.6314 43.6386 67.4714 43.1386 67.4714 42.4986V31.4886C67.4714 30.8286 67.6314 30.3286 67.9514 29.9886C68.2714 29.6286 68.7314 29.4486 69.3314 29.4486C69.9314 29.4486 70.3914 29.6286 70.7114 29.9886C71.0514 30.3286 71.2214 30.8286 71.2214 31.4886V42.4986C71.2214 43.1386 71.0614 43.6386 70.7414 43.9986C70.4214 44.3586 69.9514 44.5386 69.3314 44.5386ZM69.3314 26.6586C68.6314 26.6586 68.0814 26.4886 67.6814 26.1486C67.3014 25.7886 67.1114 25.2986 67.1114 24.6786C67.1114 24.0386 67.3014 23.5486 67.6814 23.2086C68.0814 22.8686 68.6314 22.6986 69.3314 22.6986C70.0514 22.6986 70.6014 22.8686 70.9814 23.2086C71.3614 23.5486 71.5514 24.0386 71.5514 24.6786C71.5514 25.2986 71.3614 25.7886 70.9814 26.1486C70.6014 26.4886 70.0514 26.6586 69.3314 26.6586Z" fill="black"/>
<path d="M53.2357 44.3286C52.6157 44.3286 52.1357 44.1586 51.7957 43.8186C51.4557 43.4586 51.2857 42.9686 51.2857 42.3486V25.0386C51.2857 24.3986 51.4457 23.9186 51.7657 23.5986C52.1057 23.2586 52.5857 23.0886 53.2057 23.0886C53.8257 23.0886 54.2957 23.2586 54.6157 23.5986C54.9557 23.9186 55.1257 24.3986 55.1257 25.0386V41.0586H63.8257C64.3657 41.0586 64.7757 41.1986 65.0557 41.4786C65.3557 41.7586 65.5057 42.1586 65.5057 42.6786C65.5057 43.1986 65.3557 43.6086 65.0557 43.9086C64.7757 44.1886 64.3657 44.3286 63.8257 44.3286H53.2357Z" fill="black"/>
<defs>
<linearGradient id="paint0_linear_756_1020" x1="72.685" y1="51.303" x2="72.685" y2="1.30298" gradientUnits="userSpaceOnUse">
<stop stop-color="#4652F6"/>
<stop offset="1" stop-color="#1B76FE"/>
</linearGradient>
</defs>
</svg>
