<svg width="1304" height="255" viewBox="0 0 1304 255" fill="none" xmlns="http://www.w3.org/2000/svg">
<path d="M256.347 62.6953H276.758L332.085 142.552L341.396 159.024L340.5 130.555V62.6953H360.912V190H340.5L285.532 110.144L275.863 93.4919L276.758 121.782V190H256.347V62.6953ZM386.313 98.3263H406.009V190H386.313V98.3263ZM386.134 63.9486H406.009V85.4347H386.134V63.9486ZM481.403 116.948H467.974C462.006 116.948 457.052 119.036 453.113 123.214C449.293 127.273 447.384 132.465 447.384 138.792V190H427.688V136.822C427.688 124.527 431.209 115.038 438.252 108.353C445.295 101.669 455.083 98.3263 467.616 98.3263H481.403V116.948ZM522.807 192.507C512.541 192.507 504.365 189.821 498.277 184.449C492.309 178.959 489.325 171.797 489.325 162.963C489.325 154.13 492.309 147.088 498.277 141.835C504.365 136.464 512.541 133.778 522.807 133.778H552.171V129.123C552.171 124.468 550.56 120.708 547.337 117.843C544.233 114.859 539.996 113.367 534.624 113.367H530.327C525.433 113.367 521.375 114.56 518.152 116.948C515.048 119.215 513.138 122.259 512.422 126.079H492.368C494.04 116.052 498.217 108.532 504.902 103.519C511.706 98.5053 520.42 95.9986 531.043 95.9986H533.013C545.785 95.9986 555.334 99.2812 561.661 105.846C568.107 112.292 571.33 121.543 571.33 133.599V161.352C571.33 165.649 571.867 168.693 572.941 170.484C574.135 172.155 576.104 172.99 578.85 172.99H583.147V190H573.12C564.287 190 558.498 186.359 555.752 179.078C553.604 183.495 550.321 186.837 545.904 189.105C541.607 191.373 536.654 192.507 531.043 192.507H522.807ZM509.557 162.426C509.557 166.485 511.049 169.767 514.034 172.274C517.018 174.661 521.136 175.855 526.388 175.855H531.401C537.608 175.855 542.622 174.244 546.442 171.021C550.261 167.798 552.171 163.083 552.171 156.876V148.998H526.388C521.136 148.998 517.018 150.251 514.034 152.758C511.049 155.145 509.557 158.368 509.557 162.426ZM648.474 62.6953H668.885L705.054 118.022L713.111 131.272L721.168 118.022L757.515 62.6953H777.927V190H757.515V112.113L757.873 97.252L720.452 154.906H705.591L668.527 97.252L668.885 111.934V190H648.474V62.6953ZM841.049 192.507C828.038 192.507 818.071 189.045 811.148 182.122C804.225 175.199 800.763 165.291 800.763 152.399V135.927C800.763 123.155 804.225 113.307 811.148 106.384C818.071 99.4603 828.038 95.9986 841.049 95.9986H844.809C857.701 95.9986 867.608 99.4603 874.532 106.384C881.455 113.307 884.916 123.155 884.916 135.927V152.399H820.279V153.474C820.279 160.278 822.07 165.53 825.651 169.23C829.232 172.931 834.305 174.781 840.87 174.781H844.809C849.703 174.781 853.762 173.766 856.985 171.737C860.208 169.708 862.476 166.843 863.789 163.142H884.021C882.231 172.572 877.993 179.854 871.309 184.987C864.624 190 855.791 192.507 844.809 192.507H841.049ZM865.579 136.643V134.853C865.579 127.929 863.789 122.677 860.208 119.096C856.746 115.396 851.673 113.546 844.988 113.546H840.87C834.186 113.546 829.053 115.396 825.472 119.096C822.01 122.677 820.279 127.929 820.279 134.853V136.643H865.579ZM942.765 192.507C929.754 192.507 919.787 189.045 912.864 182.122C905.94 175.199 902.479 165.291 902.479 152.399V135.927C902.479 123.274 905.761 113.486 912.327 106.563C918.892 99.52 927.964 95.9986 939.542 95.9986H945.63C955.537 95.9986 963.177 99.1619 968.548 105.488L968.011 96.3567V62.6953H987.707V152.399C987.707 165.291 984.245 175.199 977.322 182.122C970.518 189.045 960.551 192.507 947.42 192.507H942.765ZM922.353 152.579C922.353 159.382 924.144 164.635 927.725 168.335C931.306 172.035 936.379 173.885 942.944 173.885H947.241C954.045 173.885 959.178 172.035 962.64 168.335C966.221 164.635 968.011 159.382 968.011 152.579V135.927C968.011 129.004 966.221 123.692 962.64 119.991C959.178 116.291 954.045 114.441 947.241 114.441H942.944C936.379 114.441 931.306 116.291 927.725 119.991C924.144 123.692 922.353 129.004 922.353 135.927V152.579ZM1010.02 98.3263H1029.72V190H1010.02V98.3263ZM1009.84 63.9486H1029.72V85.4347H1009.84V63.9486ZM1089.54 192.507C1076.64 192.507 1066.74 189.045 1059.81 182.122C1053.01 175.199 1049.61 165.291 1049.61 152.399V135.927C1049.61 123.155 1053.01 113.307 1059.81 106.384C1066.74 99.4603 1076.64 95.9986 1089.54 95.9986H1093.47C1105.65 95.9986 1115.14 99.2215 1121.94 105.667C1128.87 111.994 1132.63 121.066 1133.22 132.883H1113.35C1112.75 127.034 1110.72 122.498 1107.26 119.275C1103.92 116.052 1099.2 114.441 1093.12 114.441H1089.71C1083.27 114.441 1078.26 116.291 1074.67 119.991C1071.21 123.692 1069.48 129.004 1069.48 135.927V152.579C1069.48 159.382 1071.21 164.635 1074.67 168.335C1078.26 172.035 1083.27 173.885 1089.71 173.885H1093.12C1099.44 173.885 1104.28 172.155 1107.62 168.693C1111.08 165.112 1112.93 160.695 1113.17 155.443H1133.22C1132.63 167.261 1128.87 176.392 1121.94 182.838C1115.14 189.284 1105.65 192.507 1093.47 192.507H1089.54ZM1182.36 192.507C1172.1 192.507 1163.92 189.821 1157.83 184.449C1151.86 178.959 1148.88 171.797 1148.88 162.963C1148.88 154.13 1151.86 147.088 1157.83 141.835C1163.92 136.464 1172.1 133.778 1182.36 133.778H1211.73V129.123C1211.73 124.468 1210.11 120.708 1206.89 117.843C1203.79 114.859 1199.55 113.367 1194.18 113.367H1189.88C1184.99 113.367 1180.93 114.56 1177.71 116.948C1174.6 119.215 1172.69 122.259 1171.98 126.079H1151.92C1153.59 116.052 1157.77 108.532 1164.46 103.519C1171.26 98.5053 1179.97 95.9986 1190.6 95.9986H1192.57C1205.34 95.9986 1214.89 99.2812 1221.22 105.846C1227.66 112.292 1230.88 121.543 1230.88 133.599V161.352C1230.88 165.649 1231.42 168.693 1232.5 170.484C1233.69 172.155 1235.66 172.99 1238.4 172.99H1242.7V190H1232.68C1223.84 190 1218.05 186.359 1215.31 179.078C1213.16 183.495 1209.88 186.837 1205.46 189.105C1201.16 191.373 1196.21 192.507 1190.6 192.507H1182.36ZM1169.11 162.426C1169.11 166.485 1170.6 169.767 1173.59 172.274C1176.57 174.661 1180.69 175.855 1185.94 175.855H1190.96C1197.16 175.855 1202.18 174.244 1206 171.021C1209.82 167.798 1211.73 163.083 1211.73 156.876V148.998H1185.94C1180.69 148.998 1176.57 150.251 1173.59 152.758C1170.6 155.145 1169.11 158.368 1169.11 162.426ZM1276.45 62.6953V156.876C1276.45 162.008 1277.77 165.769 1280.39 168.156C1283.02 170.424 1287.26 171.558 1293.1 171.558H1299.19V190H1288.81C1277.83 190 1269.71 187.374 1264.46 182.122C1259.32 176.75 1256.76 167.917 1256.76 155.622V62.6953H1276.45Z" fill="#222222"/>
<path d="M127.277 175.224C136.461 189.835 132.062 209.103 117.45 218.288C102.839 227.472 83.5706 223.072 74.3862 208.461C67.0323 196.772 69.3123 162.796 70.5326 149.693C70.7895 146.996 73.4871 145.294 76.024 146.257C88.3555 150.85 119.955 163.566 127.277 175.256V175.224Z" fill="#0946CB"/>
<path d="M47.8606 156.534C33.249 165.718 13.981 161.319 4.79658 146.707C-4.38783 132.095 0.0116959 112.827 14.6233 103.643C26.3125 96.2891 60.2884 98.5691 73.3907 99.7894C76.0882 100.046 77.7902 102.744 76.8268 105.281C72.2346 117.612 59.5177 149.212 47.8285 156.534H47.8606Z" fill="#0946CB"/>
<path d="M66.519 77.1174C57.3346 62.5058 61.7341 43.2378 76.3457 34.0534C90.9572 24.869 110.257 29.2685 119.41 43.8801C126.764 55.5694 124.484 89.5453 123.263 102.648C123.006 105.345 120.309 107.047 117.772 106.084C105.44 101.491 73.8408 88.7745 66.519 77.0853V77.1174Z" fill="#0946CB"/>
<path d="M145.967 95.7756C160.579 86.5912 179.847 90.9907 189.031 105.602C198.216 120.214 193.816 139.482 179.205 148.666C167.515 156.02 133.539 153.74 120.437 152.52C117.74 152.263 116.038 149.565 117.001 147.028C121.593 134.697 134.31 103.097 145.999 95.7756H145.967Z" fill="#53A2FF"/>
</svg>
