<svg width="1608" height="369" viewBox="0 0 1608 369" fill="none" xmlns="http://www.w3.org/2000/svg">
<path d="M351.705 169.31H297.315C288.085 169.31 280.587 161.826 280.587 152.577V59.6317C280.587 50.3994 273.105 42.8992 263.858 42.8992H217.422C208.191 42.8992 200.693 35.4158 200.693 26.1666V16.7325C200.693 7.50021 193.211 0 183.964 0C174.717 0 167.236 7.48339 167.236 16.7325V116.102C167.236 125.334 159.754 132.834 150.507 132.834H59.1134C49.8832 132.834 42.3848 140.335 42.3848 149.567V152.577C42.3848 161.809 34.9031 169.31 25.6562 169.31H16.7286C7.49846 169.31 0 176.793 0 186.042C0 195.291 7.48164 202.775 16.7286 202.775H93.4617C102.692 202.775 110.19 210.258 110.19 219.507V286.656C110.19 295.888 117.672 303.388 126.919 303.388H150.507C159.737 303.388 167.236 310.872 167.236 320.121V351.787C167.236 361.019 174.717 368.519 183.964 368.519C193.211 368.519 200.693 361.036 200.693 351.787V219.524C200.693 210.292 208.175 202.791 217.422 202.791H351.688C360.918 202.791 368.416 195.308 368.416 186.059C368.416 176.81 360.935 169.326 351.688 169.326" fill="#0037FF"/>
<path d="M491.922 270.764H528.423C582.98 270.764 622.422 232.153 622.422 178.844C622.422 125.535 582.98 86.9244 528.423 86.9244H491.922V270.764ZM453.32 306.852V50.8359H528.423C605.223 50.8359 661.024 105.406 661.024 178.844C661.024 252.282 605.223 306.852 528.423 306.852H453.32Z" fill="black"/>
<path d="M720.171 187.236H847.309C843.106 150.307 818.358 124.274 785.203 124.274C752.048 124.274 725.619 149.045 720.171 187.236ZM880.884 217.035H720.592C726.039 255.225 751.224 278.315 786.044 278.315C811.229 278.315 827.588 266.98 838.079 250.197H875.42C862.827 282.098 829.269 311.477 785.623 311.477C728.561 311.477 683.654 265.315 683.654 201.093C683.654 136.87 729.805 91.1289 785.203 91.1289C840.601 91.1289 882.548 136.87 882.548 196.065C882.548 204.876 882.128 212.007 880.867 217.052" fill="black"/>
<path d="M905.213 201.093C905.213 138.552 951.364 91.1289 1007.18 91.1289C1057.54 91.1289 1093.62 130.581 1101.59 172.135H1065.51C1058.38 147.38 1039.5 125.132 1007.18 125.132C971.505 125.132 941.31 155.772 941.31 201.11C941.31 246.447 971.522 277.491 1007.18 277.491C1039.5 277.491 1058.38 255.242 1065.51 230.488H1101.59C1093.62 272.042 1057.52 311.494 1007.18 311.494C951.381 311.494 905.213 264.071 905.213 201.11" fill="black"/>
<path d="M1285.36 201.093C1285.36 155.755 1255.99 125.115 1221.58 125.115C1187.16 125.115 1158.23 155.755 1158.23 201.093C1158.23 246.43 1187.6 277.474 1221.58 277.474C1255.55 277.474 1285.36 246.834 1285.36 201.093ZM1122.13 201.093C1122.13 136.45 1166.62 91.1289 1219.47 91.1289C1253.89 91.1289 1278.22 113.798 1284.51 122.189H1286.61L1294.58 95.7535H1321.43V306.869H1294.58L1286.61 280.417H1284.51C1278.22 288.808 1253.87 311.477 1219.47 311.477C1166.6 311.477 1122.13 265.736 1122.13 201.093Z" fill="black"/>
<path d="M1361.71 306.854V95.7378H1388.56L1396.53 122.174H1398.63C1406.18 110.839 1426.74 91.1133 1453.19 91.1133C1459.48 91.1133 1464.94 91.5337 1469.55 92.7949V129.304C1464.1 127.622 1459.06 127.202 1453.19 127.202C1420.87 127.202 1397.81 149.871 1397.81 188.061V306.837H1361.73L1361.71 306.854Z" fill="black"/>
<path d="M1524.09 240.948V128.882H1488.01V96.9806H1503.95C1520.3 96.9806 1529.54 88.1687 1529.54 71.7893V40.3086H1560.17V95.7193H1608V128.882H1560.17V239.686C1560.17 265.702 1573.6 277.456 1593.32 277.456C1598.77 277.456 1603.39 276.616 1608 274.513V307.676C1602.97 309.357 1596.25 311.46 1586.18 311.46C1550.94 311.46 1524.07 285.865 1524.07 240.948" fill="black"/>
</svg>
